# Blender 4.1.1
# www.blender.org
mtllib 活動海報架_2.mtl
o group_5.002
v 8.098636 6.940128 -1.213929
v 8.098636 6.940128 -2.813026
o group_5.003
v 8.098636 6.940128 -11.655040
v 8.098636 6.940128 -13.254140
o group_6.001
v 0.273462 0.000000 -9.498916
v 2.599779 0.000000 -9.909108
o group_6.002
v 2.599779 0.000000 -4.558957
v 0.273462 0.000000 -4.969150
o group_0
v 0.334804 1.440000 -1.040000
v 1.027624 0.080000 -1.040000
v 0.265522 1.400000 -1.040000
v 1.120000 0.080000 -1.040000
v 1.073812 0.000000 -1.040000
v 1.079575 0.005313 -1.040000
v 1.085038 0.010935 -1.040000
v 1.090183 0.016848 -1.040000
v 1.094995 0.023035 -1.040000
v 1.099460 0.029478 -1.040000
v 1.103565 0.036156 -1.040000
v 1.107296 0.043049 -1.040000
v 1.110642 0.050137 -1.040000
v 1.113595 0.057398 -1.040000
v 1.116143 0.064811 -1.040000
v 1.118280 0.072352 -1.040000
v 0.000000 0.000000 -1.040000
v 0.000000 0.080000 -1.040000
v 0.000000 0.080000 -1.040000
v 1.027624 0.080000 -1.040000
v 0.265522 1.400000 -1.040000
v 0.334804 1.440000 -1.040000
v 1.120000 0.080000 -1.040000
v 1.118280 0.072352 -1.040000
v 1.116143 0.064811 -1.040000
v 1.113595 0.057398 -1.040000
v 1.110642 0.050137 -1.040000
v 1.107296 0.043049 -1.040000
v 1.103565 0.036156 -1.040000
v 1.099460 0.029478 -1.040000
v 1.094995 0.023035 -1.040000
v 1.090183 0.016848 -1.040000
v 1.085038 0.010935 -1.040000
v 1.079575 0.005313 -1.040000
v 1.073812 0.000000 -1.040000
v 0.000000 0.000000 -1.040000
v -0.000000 0.080000 0.000000
v 1.027624 0.080000 -1.040000
v 0.000000 0.080000 -1.040000
v 1.027624 0.080000 0.000000
v -0.000000 0.080000 0.000000
v 1.027624 0.080000 0.000000
v 0.265522 1.400000 0.000000
v 1.027624 0.080000 -1.040000
v 1.027624 0.080000 0.000000
v 0.265522 1.400000 -1.040000
v 0.265522 1.400000 0.000000
v 0.265522 1.400000 0.000000
v 0.334804 1.440000 -1.040000
v 0.265522 1.400000 -1.040000
v 0.334804 1.440000 0.000000
v 0.334804 1.440000 0.000000
v 1.120000 0.080000 -1.040000
v 1.108000 0.100785 -1.008800
v 1.120000 0.080000 0.000000
v 0.334804 1.440000 -1.040000
v 0.346804 1.419215 -1.008800
v 0.346804 1.419216 -0.031200
v 1.108000 0.100785 -0.031200
v 0.334804 1.440000 0.000000
v 1.120000 0.080000 0.000000
v 0.346804 1.419216 -0.031200
v 1.108000 0.100785 -0.031200
v 0.346804 1.419215 -1.008800
v 1.108000 0.100785 -1.008800
v 1.120000 0.080000 -1.040000
v 1.118280 0.072353 0.000000
v 1.118280 0.072352 -1.040000
v 1.120000 0.080000 0.000000
v 1.118280 0.072353 0.000000
v 1.116143 0.064811 0.000000
v 1.116143 0.064811 -1.040000
v 1.116143 0.064811 0.000000
v 1.113595 0.057399 0.000000
v 1.113595 0.057398 -1.040000
v 1.113595 0.057399 0.000000
v 1.110642 0.050137 0.000000
v 1.110642 0.050137 -1.040000
v 1.110642 0.050137 0.000000
v 1.107296 0.043049 0.000000
v 1.107296 0.043049 -1.040000
v 1.107296 0.043049 0.000000
v 1.103565 0.036156 0.000000
v 1.103565 0.036156 -1.040000
v 1.103565 0.036156 0.000000
v 1.099460 0.029478 0.000000
v 1.099460 0.029478 -1.040000
v 1.099460 0.029478 0.000000
v 1.094995 0.023035 0.000000
v 1.094995 0.023035 -1.040000
v 1.094995 0.023035 0.000000
v 1.090183 0.016848 0.000000
v 1.090183 0.016848 -1.040000
v 1.090183 0.016848 0.000000
v 1.085038 0.010935 0.000000
v 1.085038 0.010935 -1.040000
v 1.085038 0.010935 0.000000
v 1.079575 0.005313 0.000000
v 1.079575 0.005313 -1.040000
v 1.079575 0.005313 0.000000
v 1.073812 0.000000 -1.040000
v 1.073812 0.000000 0.000000
v 1.073812 0.000000 0.000000
v 1.073812 0.000000 0.000000
v 0.000000 0.000000 -1.040000
v 1.073812 0.000000 -1.040000
v -0.000000 0.000000 0.000000
v -0.000000 0.000000 0.000000
v -0.000000 0.080000 0.000000
v 0.000000 0.000000 -1.040000
v -0.000000 0.000000 0.000000
v 0.000000 0.080000 -1.040000
v 1.073812 0.000000 0.000000
v -0.000000 0.080000 0.000000
v -0.000000 0.000000 0.000000
v 1.027624 0.080000 0.000000
v 0.334804 1.440000 0.000000
v 0.265522 1.400000 0.000000
v 1.120000 0.080000 0.000000
v 1.079575 0.005313 0.000000
v 1.085038 0.010935 0.000000
v 1.090183 0.016848 0.000000
v 1.094995 0.023035 0.000000
v 1.099460 0.029478 0.000000
v 1.103565 0.036156 0.000000
v 1.107296 0.043049 0.000000
v 1.110642 0.050137 0.000000
v 1.113595 0.057399 0.000000
v 1.116143 0.064811 0.000000
v 1.118280 0.072353 0.000000
vn -0.0000 -0.0000 -1.0000
vn -0.0000 1.0000 -0.0000
vn -0.8660 -0.5000 -0.0000
vn -0.5000 0.8660 -0.0000
vn 0.8660 0.5000 -0.0000
vn 0.9756 -0.2194 -0.0000
vn 0.9692 -0.2461 -0.0000
vn 0.9542 -0.2990 -0.0000
vn 0.9543 -0.2990 -0.0000
vn 0.9364 -0.3510 -0.0000
vn 0.9157 -0.4019 -0.0000
vn 0.8922 -0.4517 -0.0000
vn 0.8660 -0.5000 -0.0000
vn 0.8372 -0.5468 -0.0000
vn 0.8059 -0.5920 -0.0000
vn 0.7722 -0.6354 -0.0000
vn 0.7361 -0.6769 -0.0000
vn 0.6978 -0.7163 -0.0000
vn 0.6778 -0.7353 -0.0000
vn 0.6778 -0.7352 -0.0000
vn -0.0000 -1.0000 -0.0000
vn -1.0000 -0.0000 -0.0000
vn -0.0000 -0.0000 1.0000
vn -0.0001 -0.0000 1.0000
vn 0.0001 -0.0000 1.0000
vn 0.0002 -0.0000 1.0000
vn -0.0002 -0.0000 1.0000
s 0
usemtl material.002
f 9//1 10//1 11//1
f 10//1 9//1 12//1
f 10//1 12//1 13//1
f 13//1 12//1 14//1
f 14//1 12//1 15//1
f 15//1 12//1 16//1
f 16//1 12//1 17//1
f 17//1 12//1 18//1
f 18//1 12//1 19//1
f 19//1 12//1 20//1
f 20//1 12//1 21//1
f 21//1 12//1 22//1
f 22//1 12//1 23//1
f 23//1 12//1 24//1
f 10//1 25//1 26//1
f 25//1 10//1 13//1
f 45//2 46//2 47//2
f 46//2 45//2 48//2
f 51//3 52//3 53//3
f 52//3 51//3 54//3
f 56//4 57//4 58//4
f 57//4 56//4 59//4
f 61//5 62//5 63//5
f 62//5 61//5 64//5
f 62//5 64//5 65//5
f 65//5 64//5 66//5
f 63//5 67//5 68//5
f 67//5 63//5 62//5
f 68//5 67//5 66//5
f 68//5 66//5 64//5
s 1
f 74//6 75//7 76//7
f 75//7 74//6 77//6
f 76//7 79//8 80//9
f 79//8 76//7 75//7
f 80//9 82//10 83//10
f 82//10 80//9 79//8
f 83//10 85//11 86//11
f 85//11 83//10 82//10
f 86//11 88//12 89//12
f 88//12 86//11 85//11
f 89//12 91//13 92//13
f 91//13 89//12 88//12
f 92//13 94//14 95//14
f 94//14 92//13 91//13
f 95//14 97//15 98//15
f 97//15 95//14 94//14
f 98//15 100//16 101//16
f 100//16 98//15 97//15
f 101//16 103//17 104//17
f 103//17 101//16 100//16
f 104//17 106//18 107//18
f 106//18 104//17 103//17
f 106//18 109//19 107//18
f 109//19 106//18 110//20
s 0
f 112//21 113//21 114//21
f 113//21 112//21 115//21
f 117//22 118//22 119//22
f 118//22 117//22 120//22
f 121//23 122//23 123//23
f 122//23 121//23 124//23
f 124//23 125//23 126//23
f 125//23 124//23 127//23
f 127//23 124//23 121//23
f 127//23 121//23 128//23
f 127//24 128//24 129//24
f 127//25 129//25 130//25
f 127//24 130//24 131//24
f 127//23 131//23 132//23
f 127//24 132//24 133//24
f 127//25 133//25 134//25
f 127//26 134//26 135//26
f 127//24 135//24 136//24
f 127//27 136//27 137//27
f 127//23 137//23 138//23
o group_0.001
v 0.339875 1.415215 -1.008800
v 1.101072 0.096785 -0.031200
v 1.101072 0.096785 -1.008800
v 0.339875 1.415215 -0.031200
v 0.339875 1.415215 -0.031200
v 1.101072 0.096785 -0.031200
v 1.101072 0.096785 -1.008800
v 0.339875 1.415215 -1.008800
v 0.346804 1.419216 -0.031200
v 1.101072 0.096785 -0.031200
v 0.339875 1.415215 -0.031200
v 1.108000 0.100785 -0.031200
v 0.346804 1.419216 -0.031200
v 1.108000 0.100785 -0.031200
v 1.101072 0.096785 -0.031200
v 1.108000 0.100785 -1.008800
v 1.101072 0.096785 -1.008800
v 1.108000 0.100785 -0.031200
v 1.108000 0.100785 -1.008800
v 1.101072 0.096785 -1.008800
v 0.346804 1.419215 -1.008800
v 0.339875 1.415215 -1.008800
v 1.108000 0.100785 -1.008800
v 0.346804 1.419215 -1.008800
v 0.346804 1.419216 -0.031200
v 0.339875 1.415215 -1.008800
v 0.346804 1.419215 -1.008800
v 0.339875 1.415215 -0.031200
vn 0.8660 0.5000 -0.0000
vn -0.0000 -0.0000 -1.0000
vn -0.5000 0.8660 -0.0000
vn -0.0000 -0.0000 1.0000
vn 0.5000 -0.8660 -0.0000
s 0
usemtl material.002
f 139//28 140//28 141//28
f 140//28 139//28 142//28
f 147//29 148//29 149//29
f 148//29 147//29 150//29
f 153//30 154//30 155//30
f 154//30 153//30 156//30
f 158//31 159//31 160//31
f 159//31 158//31 161//31
f 163//32 164//32 165//32
f 164//32 163//32 166//32
